<svg width="9" height="7" viewBox="0 0 9 7" fill="none" xmlns="http://www.w3.org/2000/svg">
<path d="M4.79108 6.15386C4.9054 6.15388 5.0186 6.1289 5.12422 6.08034C5.22984 6.03179 5.32582 5.96061 5.40667 5.87088L8.65528 2.26421C8.81843 2.08308 8.9101 1.83742 8.9101 1.58126C8.9101 1.3251 8.81843 1.07944 8.65528 0.898308C8.49213 0.717178 8.27086 0.615409 8.04013 0.615409C7.8094 0.615409 7.58813 0.717178 7.42498 0.898308L4.78943 3.11779L2.15388 0.898309C1.99073 0.717178 1.76946 0.615409 1.53873 0.615409C1.308 0.615409 1.0867 0.717178 0.923552 0.898309C0.760403 1.07944 0.668762 1.3251 0.668762 1.58126C0.668762 1.83742 0.760403 2.08308 0.923552 2.26421L4.17219 5.87088C4.2534 5.96109 4.34991 6.03256 4.45614 6.08113C4.56237 6.1297 4.6762 6.15442 4.79108 6.15386Z" fill="#E0E4F5"/>
</svg>
