<svg width="10" height="15" viewBox="0 0 10 15" fill="none" xmlns="http://www.w3.org/2000/svg">
<path d="M0.92311 7.50259C0.923082 7.68359 0.962637 7.86283 1.03952 8.03006C1.11639 8.19729 1.22909 8.34927 1.37117 8.47727L7.08172 13.6209C7.36851 13.8792 7.75748 14.0244 8.16306 14.0244C8.56865 14.0244 8.95761 13.8792 9.2444 13.6209C9.53119 13.3626 9.69233 13.0122 9.69233 12.6469C9.69233 12.2816 9.53119 11.9313 9.2444 11.6729L5.73022 7.49998L9.2444 3.32702C9.53119 3.0687 9.69233 2.71835 9.69233 2.35303C9.69233 1.98771 9.53119 1.63732 9.2444 1.379C8.95761 1.12068 8.56865 0.975586 8.16306 0.975586C7.75748 0.975586 7.36851 1.12068 7.08172 1.379L1.37117 6.52269C1.22832 6.65127 1.11517 6.80407 1.03826 6.97227C0.961359 7.14047 0.92223 7.32069 0.92311 7.50259Z" fill="#E0E4F5"/>
</svg>
