<svg width="38" height="38" viewBox="0 0 37 36" fill="none" xmlns="http://www.w3.org/2000/svg">
																<path style="mix-blend-mode:multiply" opacity="0.4" d="M37 30.5635C37 33.4452 28.7173 35.7813 18.5 35.7813C8.28268 35.7813 0 33.4452 0 30.5635C0 27.6817 8.28268 25.3472 18.5 25.3472C28.7173 25.3472 37 27.6817 37 30.5635Z" fill="url(#paint0_linear_891_9843)"></path>
																<path d="M34.4771 18.811C34.4771 27.6319 31.8608 31.9549 18.5001 31.9549C5.13935 31.9549 2.52148 27.6371 2.52148 18.811C2.52148 9.98483 9.67537 0 18.4993 0C27.3232 0 34.4771 9.99006 34.4771 18.811Z" fill="url(#paint1_linear_891_9843)"></path>
																<path style="mix-blend-mode:multiply" opacity="0.5" d="M18.4993 30.4751C5.63644 30.4751 2.73376 26.4713 2.53417 18.3022C2.52968 18.4727 2.52148 18.6439 2.52148 18.8128C2.52148 27.6337 5.13783 31.9567 18.4993 31.9567C31.8607 31.9567 34.4764 27.6375 34.4764 18.8128C34.4764 18.6439 34.4682 18.4727 34.4629 18.3022C34.2648 26.4713 31.3614 30.4751 18.4993 30.4751Z" fill="url(#paint2_linear_891_9843)"></path>
																<path d="M18.5007 20.6045C20.4436 20.6013 22.3104 21.3597 23.7005 22.7171C23.8913 22.9021 24.0007 23.1554 24.0047 23.4211C24.0087 23.6868 23.9069 23.9433 23.7219 24.134C23.5368 24.3247 23.2835 24.4341 23.0178 24.4381C22.7521 24.4421 22.4957 24.3404 22.3049 24.1553C21.2872 23.1633 19.9223 22.6081 18.5011 22.6081C17.0799 22.6081 15.715 23.1633 14.6973 24.1553C14.5065 24.3406 14.25 24.4425 13.9841 24.4386C13.7183 24.4348 13.4648 24.3255 13.2795 24.1347C13.0943 23.944 12.9923 23.6875 12.9962 23.4216C13.0001 23.1558 13.1094 22.9023 13.3001 22.7171C14.6907 21.3598 16.5576 20.6015 18.5007 20.6045Z" fill="#794A2C"></path>
																<path d="M21.9877 15.2568C22.4841 14.7477 28.8089 13.1831 29.3883 13.1285C29.9676 13.074 30.1493 16.7698 26.526 17.8559C22.9027 18.9421 21.6259 15.6283 21.9877 15.2568Z" fill="#C03541"></path>
																<path d="M15.0111 15.2568C14.514 14.7477 8.1899 13.1831 7.61056 13.1285C7.03122 13.074 6.85029 16.7698 10.4736 17.8559C14.0969 18.9421 15.3737 15.6283 15.0111 15.2568Z" fill="#C03541"></path>
																<path fill-rule="evenodd" clip-rule="evenodd" d="M24.4586 9.77731C24.3867 9.79366 24.3187 9.82401 24.2585 9.86663C24.1983 9.90924 24.1471 9.9633 24.1078 10.0257C24.0686 10.0881 24.0419 10.1576 24.0295 10.2303C24.0171 10.303 24.0191 10.3775 24.0354 10.4494C24.0518 10.5213 24.0822 10.5893 24.1248 10.6494C24.1674 10.7096 24.2214 10.7608 24.2838 10.8001C24.3462 10.8394 24.4158 10.866 24.4885 10.8784C24.5612 10.8908 24.6356 10.8888 24.7075 10.8725L27.1811 10.3088C27.3156 10.278 27.4341 10.1987 27.514 10.0862C27.5939 9.97361 27.6295 9.8356 27.6142 9.69843C27.5989 9.56126 27.5336 9.43451 27.4308 9.34236C27.3281 9.25021 27.195 9.19909 27.057 9.19873C27.0145 9.19876 26.9721 9.20377 26.9307 9.21367L24.4586 9.77731Z" fill="#794A2C"></path>
																<path fill-rule="evenodd" clip-rule="evenodd" d="M12.5419 9.77731C12.6138 9.79366 12.6818 9.82401 12.742 9.86663C12.8022 9.90924 12.8534 9.9633 12.8926 10.0257C12.9319 10.0881 12.9586 10.1576 12.971 10.2303C12.9834 10.303 12.9814 10.3775 12.965 10.4494C12.9487 10.5213 12.9183 10.5893 12.8757 10.6494C12.8331 10.7096 12.779 10.7608 12.7166 10.8001C12.6542 10.8394 12.5847 10.866 12.512 10.8784C12.4393 10.8908 12.3649 10.8888 12.293 10.8725L9.81938 10.3088C9.68484 10.278 9.56636 10.1987 9.48649 10.0862C9.40662 9.97361 9.37096 9.8356 9.38629 9.69843C9.40163 9.56126 9.46686 9.43451 9.56962 9.34236C9.67238 9.25021 9.80545 9.19909 9.94348 9.19873C9.98578 9.19876 10.0279 9.20377 10.069 9.21367L12.5419 9.77731Z" fill="#794A2C"></path>
																<path d="M21.6303 5.36459C21.0709 5.32794 20.533 5.1344 20.0785 4.80617C19.9884 4.73105 19.9302 4.62452 19.9157 4.50812C19.9011 4.39172 19.9313 4.27415 20.0002 4.17918C20.069 4.08421 20.1714 4.01894 20.2865 3.99656C20.4017 3.97418 20.5211 3.99637 20.6205 4.05864C20.8238 4.20441 21.4906 4.57817 21.8733 4.39278C22.1357 4.26719 22.2994 3.8284 22.3345 3.15711C22.3366 3.09562 22.3509 3.03514 22.3767 2.97924C22.4024 2.92335 22.439 2.87315 22.4844 2.83157C22.5297 2.79 22.5829 2.75789 22.6408 2.73713C22.6987 2.71636 22.7602 2.70734 22.8217 2.71062C22.8831 2.7139 22.9433 2.7294 22.9987 2.75622C23.0541 2.78304 23.1035 2.82065 23.1442 2.86682C23.1849 2.91299 23.2159 2.9668 23.2356 3.02512C23.2552 3.08344 23.263 3.14507 23.2585 3.20644C23.2024 4.26121 22.8698 4.94147 22.2718 5.22479C22.0712 5.31893 21.8519 5.36671 21.6303 5.36459Z" fill="#C03541"></path>
																<path d="M24.5688 7.70755C24.484 7.7075 24.4009 7.68395 24.3288 7.63953C24.1838 7.55132 22.9137 6.74249 23.0289 5.66903C23.1036 4.94691 23.7398 4.38775 24.968 3.96091C25.0828 3.92466 25.2073 3.93462 25.3149 3.98867C25.4225 4.04272 25.5048 4.13659 25.5443 4.25036C25.5839 4.36413 25.5775 4.48884 25.5265 4.59796C25.4756 4.70709 25.3841 4.79204 25.2715 4.83478C24.4649 5.11586 23.9827 5.45525 23.9483 5.76697C23.9072 6.15942 24.5232 6.6752 24.8102 6.85013C24.8962 6.90276 24.9627 6.98206 24.9995 7.07595C25.0363 7.16984 25.0414 7.27319 25.0141 7.37026C24.9867 7.46733 24.9285 7.55281 24.8481 7.6137C24.7677 7.67459 24.6696 7.70754 24.5688 7.70755Z" fill="#C03541"></path>
																<path d="M22.6753 8.8751H22.6612C22.5385 8.87139 22.4225 8.81917 22.3384 8.72988C22.2542 8.64058 22.209 8.52154 22.2127 8.39893C22.2623 8.10526 22.2391 7.80393 22.1453 7.52127C22.0514 7.23861 21.8898 6.98323 21.6744 6.77752C21.3755 6.63524 21.0503 6.55678 20.7194 6.54713C20.3885 6.53748 20.0592 6.59686 19.7525 6.72147C19.639 6.75898 19.5154 6.75113 19.4076 6.69957C19.2998 6.648 19.2161 6.55672 19.1741 6.44484C19.1321 6.33295 19.1349 6.20915 19.1821 6.09936C19.2293 5.98956 19.3172 5.90228 19.4273 5.85581C19.4961 5.82964 21.1093 5.23612 22.2104 6.02328C22.556 6.31247 22.8223 6.68476 22.9844 7.10516C23.1466 7.52556 23.1992 7.98028 23.1374 8.4266C23.1339 8.54678 23.0836 8.66084 22.9974 8.74459C22.9111 8.82834 22.7956 8.87515 22.6753 8.8751Z" fill="#C03541"></path>
																<defs>
																<linearGradient id="paint0_linear_891_9843" x1="18.5" y1="25.3472" x2="18.5" y2="35.7813" gradientUnits="userSpaceOnUse">
																<stop stop-color="#242151" stop-opacity="0.537"></stop>
																<stop offset="0.401" stop-color="#262353" stop-opacity="0.796"></stop>
																<stop offset="1" stop-color="#2E2B5D" stop-opacity="0.447"></stop>
																</linearGradient>
																<linearGradient id="paint1_linear_891_9843" x1="18.4993" y1="-2.65226" x2="18.4993" y2="34.5433" gradientUnits="userSpaceOnUse">
																<stop stop-color="#C03541"></stop>
																<stop offset="0.74" stop-color="#FCA368"></stop>
																<stop offset="1" stop-color="#F78851"></stop>
																</linearGradient>
																<linearGradient id="paint2_linear_891_9843" x1="18.4989" y1="17.1689" x2="18.4989" y2="33.0627" gradientUnits="userSpaceOnUse">
																<stop stop-color="#FFCD85"></stop>
																<stop offset="0.25" stop-color="#FFC383"></stop>
																<stop offset="0.6" stop-color="#FCA368"></stop>
																<stop offset="1" stop-color="#F78851"></stop>
																</linearGradient>
																</defs>
																</svg>