<svg width="42" height="42" viewBox="0 0 16 15" fill="none" xmlns="http://www.w3.org/2000/svg">
																<path style="mix-blend-mode:multiply" opacity="0.4" d="M15.5108 12.8127C15.5108 14.0208 12.0386 15.0001 7.7554 15.0001C3.47219 15.0001 0 14.0208 0 12.8127C0 11.6046 3.47219 10.626 7.7554 10.626C12.0386 10.626 15.5108 11.6046 15.5108 12.8127Z" fill="url(#paint0_linear_891_9865)"></path>
																<path d="M14.4528 7.88577C14.4528 11.5836 13.356 13.3962 7.75503 13.3962C2.15408 13.3962 1.05664 11.5858 1.05664 7.88577C1.05664 4.18575 4.05563 0 7.75471 0C11.4538 0 14.4528 4.18794 14.4528 7.88577Z" fill="url(#paint1_linear_891_9865)"></path>
																<path style="mix-blend-mode:screen" opacity="0.2" d="M7.75471 0.970241C11.3272 0.970241 14.2463 4.87615 14.4412 8.47589C14.4484 8.28473 14.4525 8.08918 14.4525 7.88674C14.4525 4.18892 11.4535 0.000976562 7.75471 0.000976562C4.05594 0.000976562 1.05664 4.18798 1.05664 7.8858C1.05664 8.08856 1.06102 8.28379 1.0676 8.47495C1.26315 4.8774 4.1816 0.970241 7.75471 0.970241Z" fill="url(#paint2_linear_891_9865)"></path>
																<path style="mix-blend-mode:multiply" opacity="0.5" d="M7.75471 12.7754C2.36246 12.7754 1.14563 11.0969 1.06196 7.67236C1.06008 7.74381 1.05664 7.81558 1.05664 7.8864C1.05664 11.5842 2.15344 13.3968 7.75471 13.3968C13.356 13.3968 14.4525 11.5858 14.4525 7.8864C14.4525 7.81558 14.449 7.74381 14.4468 7.67236C14.3638 11.0969 13.1466 12.7754 7.75471 12.7754Z" fill="url(#paint3_linear_891_9865)"></path>
																<path d="M11.5784 5.17544C11.5784 5.32419 11.5343 5.4696 11.4517 5.59328C11.369 5.71697 11.2516 5.81336 11.1141 5.87029C10.9767 5.92721 10.8255 5.94211 10.6796 5.91309C10.5337 5.88407 10.3997 5.81244 10.2945 5.70726C10.1893 5.60207 10.1177 5.46806 10.0887 5.32217C10.0596 5.17628 10.0745 5.02505 10.1315 4.88763C10.1884 4.7502 10.2848 4.63274 10.4085 4.55009C10.5322 4.46745 10.6776 4.42334 10.8263 4.42334C10.9251 4.42334 11.0229 4.44279 11.1141 4.48059C11.2054 4.51839 11.2883 4.57379 11.3581 4.64362C11.428 4.71346 11.4834 4.79638 11.5212 4.88763C11.559 4.97888 11.5784 5.07668 11.5784 5.17544Z" fill="#794A2C"></path>
																<path d="M5.43876 5.17544C5.43876 5.32419 5.39465 5.4696 5.31201 5.59328C5.22937 5.71697 5.1119 5.81336 4.97448 5.87029C4.83705 5.92721 4.68582 5.94211 4.53993 5.91309C4.39404 5.88407 4.26003 5.81244 4.15485 5.70726C4.04967 5.60207 3.97805 5.46806 3.94903 5.32217C3.92001 5.17628 3.93489 5.02505 3.99181 4.88763C4.04874 4.7502 4.14514 4.63274 4.26883 4.55009C4.39251 4.46745 4.53792 4.42334 4.68667 4.42334C4.78544 4.42334 4.88323 4.44279 4.97448 4.48059C5.06572 4.51839 5.14864 4.57379 5.21848 4.64362C5.28832 4.71346 5.34372 4.79638 5.38151 4.88763C5.41931 4.97888 5.43876 5.07668 5.43876 5.17544Z" fill="#794A2C"></path>
																<path fill-rule="evenodd" clip-rule="evenodd" d="M10.2535 3.1291C10.2234 3.13595 10.1949 3.14867 10.1697 3.16654C10.1444 3.18441 10.123 3.20707 10.1065 3.23323C10.09 3.25939 10.0789 3.28853 10.0737 3.31901C10.0685 3.34948 10.0693 3.38068 10.0762 3.41082C10.083 3.44097 10.0957 3.46947 10.1136 3.4947C10.1315 3.51992 10.1541 3.54138 10.1803 3.55785C10.2065 3.57432 10.2356 3.58548 10.2661 3.59069C10.2965 3.59589 10.3278 3.59505 10.3579 3.58819L11.3948 3.35191C11.4516 3.33927 11.5016 3.30613 11.5354 3.25885C11.5691 3.21156 11.5843 3.15347 11.5778 3.09573C11.5714 3.03798 11.5438 2.98466 11.5004 2.94599C11.4571 2.90732 11.4009 2.88604 11.3428 2.88623C11.325 2.88625 11.3072 2.88835 11.2899 2.8925L10.2535 3.1291Z" fill="#794A2C"></path>
																<path fill-rule="evenodd" clip-rule="evenodd" d="M5.25834 3.1291C5.28849 3.13595 5.31699 3.14867 5.34222 3.16654C5.36744 3.18441 5.3889 3.20707 5.40537 3.23323C5.42184 3.25939 5.43301 3.28853 5.43821 3.31901C5.44342 3.34948 5.44256 3.38068 5.43571 3.41082C5.42886 3.44097 5.41614 3.46947 5.39828 3.4947C5.38041 3.51992 5.35774 3.54138 5.33158 3.55785C5.30542 3.57432 5.27627 3.58548 5.2458 3.59069C5.21532 3.59589 5.18413 3.59505 5.15399 3.58819L4.11702 3.35191C4.06031 3.33927 4.01027 3.30613 3.9765 3.25885C3.94273 3.21156 3.92762 3.15347 3.93407 3.09573C3.94053 3.03798 3.96807 2.98466 4.01144 2.94599C4.05481 2.90732 4.11095 2.88604 4.16905 2.88623C4.18678 2.88624 4.20444 2.88835 4.22169 2.8925L5.25834 3.1291Z" fill="#794A2C"></path>
																<path d="M12.1319 8.76606C11.9351 7.8767 10.9978 7.05284 10.2454 7.58401C9.49294 8.11518 9.08399 8.90269 8.0204 7.90334C6.9568 6.90398 5.61431 5.82002 3.91143 7.91995C2.20855 10.0199 4.58989 12.9054 6.64093 11.9938C8.69197 11.0822 8.45662 9.81461 9.79442 10.6228C10.9555 11.3235 12.4797 10.3411 12.1319 8.76606Z" fill="#C03541"></path>
																<g style="mix-blend-mode:screen">
																<path d="M7.75629 9.08936C6.25397 9.08936 4.88704 9.89347 3.8623 11.0771C4.50034 11.952 5.61187 12.4503 6.64068 11.9925C8.69172 11.0796 8.45637 9.81325 9.79417 10.6214C10.0169 10.7585 10.2708 10.8367 10.532 10.8488C10.7933 10.8609 11.0533 10.8063 11.2877 10.6904C10.8332 10.2046 10.2873 9.81315 9.68134 9.53843C9.07539 9.26372 8.42125 9.11112 7.75629 9.08936Z" fill="#C03541"></path>
																</g>
																<defs>
																<linearGradient id="paint0_linear_891_9865" x1="7.7554" y1="10.626" x2="7.7554" y2="15.0001" gradientUnits="userSpaceOnUse">
																<stop stop-color="#242151" stop-opacity="0.537"></stop>
																<stop offset="0.401" stop-color="#262353" stop-opacity="0.796"></stop>
																<stop offset="1" stop-color="#2E2B5D" stop-opacity="0.447"></stop>
																</linearGradient>
																<linearGradient id="paint1_linear_891_9865" x1="7.75472" y1="-1.11188" x2="7.75472" y2="14.4812" gradientUnits="userSpaceOnUse">
																<stop stop-color="#FFCD85"></stop>
																<stop offset="0.25" stop-color="#FFC383"></stop>
																<stop offset="0.6" stop-color="#FCA368"></stop>
																<stop offset="1" stop-color="#F78851"></stop>
																</linearGradient>
																<linearGradient id="paint2_linear_891_9865" x1="7.75456" y1="-0.702441" x2="7.75456" y2="9.16235" gradientUnits="userSpaceOnUse">
																<stop stop-color="#FFCD85"></stop>
																<stop offset="0.25" stop-color="#FFC383"></stop>
																<stop offset="0.6" stop-color="#FCA368"></stop>
																<stop offset="1" stop-color="#F78851"></stop>
																</linearGradient>
																<linearGradient id="paint3_linear_891_9865" x1="7.75456" y1="7.19724" x2="7.75456" y2="13.8605" gradientUnits="userSpaceOnUse">
																<stop stop-color="#FFCD85"></stop>
																<stop offset="0.25" stop-color="#FFC383"></stop>
																<stop offset="0.6" stop-color="#FCA368"></stop>
																<stop offset="1" stop-color="#F78851"></stop>
																</linearGradient>
																</defs>
															</svg>