<svg width="44" height="44" viewBox="0 0 17 15" fill="none" xmlns="http://www.w3.org/2000/svg">
																<path style="mix-blend-mode:multiply" opacity="0.4" d="M16.0216 12.8127C16.0216 14.0208 12.5494 15.0001 8.26615 15.0001C3.98294 15.0001 0.510742 14.0208 0.510742 12.8127C0.510742 11.6046 3.98294 10.626 8.26615 10.626C12.5494 10.626 16.0216 11.6046 16.0216 12.8127Z" fill="url(#paint0_linear_891_9886)"></path>
																<path d="M14.9632 7.88577C14.9632 11.5836 13.8664 13.3958 8.26546 13.3958C2.66451 13.3958 1.56738 11.5858 1.56738 7.88577C1.56738 4.18575 4.56607 0 8.26546 0C11.9649 0 14.9632 4.18794 14.9632 7.88577Z" fill="url(#paint1_linear_891_9886)"></path>
																<path style="mix-blend-mode:screen" opacity="0.2" d="M8.26546 0.970242C11.8379 0.970242 14.757 4.87615 14.9519 8.47589C14.9592 8.28474 14.9632 8.08919 14.9632 7.88675C14.9632 4.18892 11.9642 0.000976562 8.26546 0.000976562C4.56669 0.000976562 1.56738 4.18797 1.56738 7.8858C1.56738 8.08824 1.57114 8.28379 1.57835 8.47495C1.77358 4.8774 4.69236 0.970242 8.26546 0.970242Z" fill="url(#paint2_linear_891_9886)"></path>
																<path style="mix-blend-mode:multiply" opacity="0.5" d="M8.26546 12.7749C2.87321 12.7749 1.65638 11.0964 1.57271 7.67188C1.57052 7.74332 1.56738 7.81509 1.56738 7.88591C1.56738 11.5837 2.66419 13.396 8.26546 13.396C13.8667 13.396 14.9632 11.5853 14.9632 7.88591C14.9632 7.81509 14.9598 7.74332 14.9579 7.67188C14.8745 11.0964 13.6574 12.7749 8.26546 12.7749Z" fill="url(#paint3_linear_891_9886)"></path>
																<path d="M12.0882 7.11489C12.0882 7.26364 12.0441 7.40906 11.9614 7.53274C11.8788 7.65642 11.7613 7.75282 11.6239 7.80974C11.4865 7.86667 11.3352 7.88156 11.1894 7.85254C11.0435 7.82352 10.9095 7.75189 10.8043 7.64671C10.6991 7.54152 10.6275 7.40752 10.5984 7.26162C10.5694 7.11573 10.5843 6.96451 10.6412 6.82708C10.6982 6.68965 10.7946 6.57219 10.9182 6.48955C11.0419 6.40691 11.1873 6.36279 11.3361 6.36279C11.5356 6.36279 11.7269 6.44203 11.8679 6.58308C12.0089 6.72412 12.0882 6.91542 12.0882 7.11489Z" fill="#794A2C"></path>
																<path d="M5.94854 7.11489C5.94854 7.26364 5.90443 7.40906 5.82178 7.53274C5.73914 7.65642 5.62168 7.75282 5.48425 7.80974C5.34682 7.86667 5.1956 7.88156 5.04971 7.85254C4.90381 7.82352 4.7698 7.75189 4.66462 7.64671C4.55944 7.54152 4.48781 7.40752 4.45879 7.26162C4.42977 7.11573 4.44466 6.96451 4.50159 6.82708C4.55851 6.68965 4.65491 6.57219 4.77859 6.48955C4.90228 6.40691 5.04768 6.36279 5.19643 6.36279C5.3959 6.36279 5.58721 6.44203 5.72825 6.58308C5.8693 6.72412 5.94854 6.91542 5.94854 7.11489Z" fill="#794A2C"></path>
																<path fill-rule="evenodd" clip-rule="evenodd" d="M5.74889 5.36839C5.81122 5.36303 5.86888 5.33313 5.90916 5.28527C5.94945 5.2374 5.96907 5.17549 5.96371 5.11315C5.95835 5.05082 5.92844 4.99317 5.88058 4.95288C5.83271 4.91259 5.7708 4.89297 5.70846 4.89833L4.64894 4.99015C4.59123 4.99514 4.53738 5.02121 4.49768 5.06338C4.45797 5.10556 4.43519 5.16088 4.43367 5.21878C4.43216 5.27668 4.45203 5.33312 4.48948 5.3773C4.52693 5.42149 4.57935 5.45034 4.63672 5.45834C4.65442 5.46029 4.67229 5.46029 4.68999 5.45834L5.74889 5.36839Z" fill="#794A2C"></path>
																<path fill-rule="evenodd" clip-rule="evenodd" d="M10.786 5.36839C10.7237 5.36303 10.666 5.33313 10.6257 5.28527C10.5854 5.2374 10.5658 5.17549 10.5712 5.11315C10.5765 5.05082 10.6064 4.99317 10.6543 4.95288C10.7022 4.91259 10.7641 4.89297 10.8264 4.89833L11.8859 4.99015C11.9437 4.99514 11.9975 5.02121 12.0372 5.06338C12.0769 5.10556 12.0997 5.16088 12.1012 5.21878C12.1027 5.27668 12.0828 5.33312 12.0454 5.3773C12.0079 5.42149 11.9555 5.45034 11.8982 5.45834C11.8805 5.46029 11.8626 5.46029 11.8449 5.45834L10.786 5.36839Z" fill="#794A2C"></path>
																<path d="M6.14453 9.55859H10.2184" stroke="#79492C" stroke-width="3.89702" stroke-linecap="round"></path>
																<g style="mix-blend-mode:multiply" opacity="0.6">
																<path d="M4.19309 8.59635C5.26839 8.59635 6.14009 8.40175 6.14009 8.1617C6.14009 7.92165 5.26839 7.72705 4.19309 7.72705C3.11779 7.72705 2.24609 7.92165 2.24609 8.1617C2.24609 8.40175 3.11779 8.59635 4.19309 8.59635Z" fill="#ED6167"></path>
																</g>
																<g style="mix-blend-mode:multiply" opacity="0.6">
																<path d="M12.3386 8.59635C13.4139 8.59635 14.2856 8.40175 14.2856 8.1617C14.2856 7.92165 13.4139 7.72705 12.3386 7.72705C11.2633 7.72705 10.3916 7.92165 10.3916 8.1617C10.3916 8.40175 11.2633 8.59635 12.3386 8.59635Z" fill="#ED6167"></path>
																</g>
																<defs>
																<linearGradient id="paint0_linear_891_9886" x1="8.26615" y1="10.626" x2="8.26615" y2="15.0001" gradientUnits="userSpaceOnUse">
																<stop stop-color="#242151" stop-opacity="0.537"></stop>
																<stop offset="0.401" stop-color="#262353" stop-opacity="0.796"></stop>
																<stop offset="1" stop-color="#2E2B5D" stop-opacity="0.447"></stop>
																</linearGradient>
																<linearGradient id="paint1_linear_891_9886" x1="8.2653" y1="-1.11186" x2="8.2653" y2="14.4809" gradientUnits="userSpaceOnUse">
																<stop stop-color="#FFCD85"></stop>
																<stop offset="0.25" stop-color="#FFC383"></stop>
																<stop offset="0.6" stop-color="#FCA368"></stop>
																<stop offset="1" stop-color="#F78851"></stop>
																</linearGradient>
																<linearGradient id="paint2_linear_891_9886" x1="8.2653" y1="-0.702442" x2="8.2653" y2="9.16236" gradientUnits="userSpaceOnUse">
																<stop stop-color="#FFCD85"></stop>
																<stop offset="0.25" stop-color="#FFC383"></stop>
																<stop offset="0.6" stop-color="#FCA368"></stop>
																<stop offset="1" stop-color="#F78851"></stop>
																</linearGradient>
																<linearGradient id="paint3_linear_891_9886" x1="8.2653" y1="7.19677" x2="8.2653" y2="13.8596" gradientUnits="userSpaceOnUse">
																<stop stop-color="#FFCD85"></stop>
																<stop offset="0.25" stop-color="#FFC383"></stop>
																<stop offset="0.6" stop-color="#FCA368"></stop>
																<stop offset="1" stop-color="#F78851"></stop>
																</linearGradient>
																</defs>
															</svg>