<svg width="42" height="42" viewBox="0 0 16 15" fill="none" xmlns="http://www.w3.org/2000/svg">
																<path style="mix-blend-mode:multiply" opacity="0.4" d="M15.5025 12.8168C15.5025 14.0226 12.037 15 7.76201 15C3.48702 15 0.0214844 14.0226 0.0214844 12.8168C0.0214844 11.6111 3.48702 10.6343 7.76201 10.6343C12.037 10.6343 15.5025 11.6111 15.5025 12.8168Z" fill="url(#paint0_linear_891_9908)"></path>
																<path d="M14.447 7.87064C14.447 11.5614 13.3523 13.3704 7.76206 13.3704C2.17185 13.3704 1.07715 11.5636 1.07715 7.87064C1.07715 4.17772 4.06976 0 7.76206 0C11.4544 0 14.447 4.17991 14.447 7.87064Z" fill="url(#paint1_linear_891_9908)"></path>
																<path style="mix-blend-mode:screen" opacity="0.2" d="M7.76206 0.968387C11.3277 0.968387 14.2415 4.8668 14.436 8.45963C14.4432 8.26884 14.447 8.07367 14.447 7.87162C14.447 4.18089 11.4537 0.000976562 7.76206 0.000976562C4.07039 0.000976562 1.07715 4.17995 1.07715 7.87068C1.07715 8.07304 1.0809 8.2679 1.0881 8.45869C1.28295 4.86805 4.19612 0.968387 7.76206 0.968387Z" fill="url(#paint2_linear_891_9908)"></path>
																<path style="mix-blend-mode:multiply" opacity="0.5" d="M7.76206 12.7509C2.38047 12.7509 1.16566 11.0757 1.08247 7.65771C1.08028 7.72903 1.07715 7.80066 1.07715 7.87134C1.07715 11.5621 2.17185 13.3712 7.76206 13.3712C13.3523 13.3712 14.447 11.5636 14.447 7.87134C14.447 7.80066 14.4438 7.72903 14.4417 7.65771C14.3588 11.0757 13.144 12.7509 7.76206 12.7509Z" fill="url(#paint3_linear_891_9908)"></path>
																<path d="M11.5765 7.10075C11.5765 7.24922 11.5325 7.39435 11.45 7.5178C11.3675 7.64124 11.2503 7.73746 11.1131 7.79427C10.976 7.85109 10.825 7.86595 10.6794 7.83699C10.5338 7.80803 10.4 7.73653 10.2951 7.63155C10.1901 7.52657 10.1186 7.39282 10.0896 7.2472C10.0607 7.10159 10.0755 6.95066 10.1323 6.81349C10.1892 6.67633 10.2854 6.55909 10.4088 6.47661C10.5323 6.39412 10.6774 6.3501 10.8258 6.3501C10.9244 6.3501 11.022 6.36952 11.1131 6.40724C11.2042 6.44496 11.2869 6.50025 11.3567 6.56996C11.4264 6.63966 11.4817 6.72242 11.5194 6.81349C11.5571 6.90456 11.5765 7.00218 11.5765 7.10075Z" fill="#794A2C"></path>
																<path d="M5.44859 7.10075C5.44859 7.24922 5.40456 7.39435 5.32208 7.5178C5.23959 7.64124 5.12236 7.73746 4.98519 7.79427C4.84803 7.85109 4.6971 7.86595 4.55148 7.83699C4.40587 7.80803 4.27211 7.73653 4.16713 7.63155C4.06215 7.52657 3.99065 7.39282 3.96169 7.2472C3.93273 7.10159 3.94759 6.95066 4.0044 6.81349C4.06122 6.67633 4.15743 6.55909 4.28088 6.47661C4.40432 6.39412 4.54946 6.3501 4.69792 6.3501C4.7965 6.3501 4.89412 6.36952 4.98519 6.40724C5.07627 6.44496 5.15902 6.50025 5.22873 6.56996C5.29843 6.63966 5.35371 6.72242 5.39143 6.81349C5.42916 6.90456 5.44859 7.00218 5.44859 7.10075Z" fill="#794A2C"></path>
																<path fill-rule="evenodd" clip-rule="evenodd" d="M10.2551 5.05881C10.2251 5.06565 10.1966 5.07834 10.1714 5.09618C10.1463 5.11401 10.1248 5.13663 10.1084 5.16274C10.0752 5.21547 10.0643 5.27923 10.0781 5.33999C10.0919 5.40075 10.1293 5.45354 10.182 5.48674C10.2348 5.51994 10.2985 5.53083 10.3593 5.51702L11.3943 5.28119C11.4509 5.26857 11.5009 5.23547 11.5346 5.18825C11.5683 5.14102 11.5833 5.083 11.5769 5.02534C11.5704 4.96769 11.5428 4.91446 11.4995 4.87589C11.4561 4.83732 11.4001 4.81614 11.342 4.81641C11.3243 4.81639 11.3067 4.81849 11.2895 4.82266L10.2551 5.05881Z" fill="#794A2C"></path>
																<path fill-rule="evenodd" clip-rule="evenodd" d="M5.26818 5.05881C5.32894 5.07262 5.38173 5.11 5.41493 5.16273C5.44813 5.21547 5.45902 5.27923 5.4452 5.33999C5.43139 5.40075 5.39401 5.45354 5.34128 5.48674C5.28854 5.51994 5.22479 5.53083 5.16402 5.51702L4.12937 5.28119C4.07277 5.26858 4.02281 5.2355 3.98911 5.18831C3.95541 5.14111 3.94033 5.08313 3.94677 5.0255C3.95321 4.96787 3.98071 4.91464 4.024 4.87605C4.06728 4.83746 4.1233 4.81622 4.18129 4.81641C4.19899 4.81642 4.21663 4.81852 4.23384 4.82266L5.26818 5.05881Z" fill="#794A2C"></path>
																<path d="M10.3534 8.7731C10.186 8.68959 8.98623 8.6311 7.76079 8.62109C6.53534 8.63142 5.33524 8.68959 5.16853 8.7731C4.82792 8.94325 5.77967 11.5815 7.76016 11.5815C9.7422 11.5818 10.6937 8.94356 10.3534 8.7731Z" fill="#C03541"></path>
																<g style="mix-blend-mode:screen">
																<path d="M9.60008 10.6722C9.41811 10.3439 9.1516 10.0703 8.8282 9.87982C8.50481 9.68933 8.13632 9.58887 7.76099 9.58887C7.38565 9.58887 7.01715 9.68933 6.69375 9.87982C6.37035 10.0703 6.10385 10.3439 5.92188 10.6722C6.14451 10.9475 6.42411 11.1713 6.74147 11.3283C7.05883 11.4853 7.40642 11.5718 7.76036 11.5817C8.11449 11.5719 8.46229 11.4855 8.77987 11.3285C9.09744 11.1715 9.37725 10.9476 9.60008 10.6722Z" fill="#C03541"></path>
																</g>
																<defs>
																<linearGradient id="paint0_linear_891_9908" x1="7.76201" y1="10.6343" x2="7.76201" y2="15" gradientUnits="userSpaceOnUse">
																<stop stop-color="#242151" stop-opacity="0.537"></stop>
																<stop offset="0.401" stop-color="#262353" stop-opacity="0.796"></stop>
																<stop offset="1" stop-color="#2E2B5D" stop-opacity="0.447"></stop>
																</linearGradient>
																<linearGradient id="paint1_linear_891_9908" x1="7.76206" y1="-1.10975" x2="7.76206" y2="14.4535" gradientUnits="userSpaceOnUse">
																<stop stop-color="#FFCD85"></stop>
																<stop offset="0.25" stop-color="#FFC383"></stop>
																<stop offset="0.6" stop-color="#FCA368"></stop>
																<stop offset="1" stop-color="#F78851"></stop>
																</linearGradient>
																<linearGradient id="paint2_linear_891_9908" x1="7.76206" y1="-0.701092" x2="7.76206" y2="9.14478" gradientUnits="userSpaceOnUse">
																<stop stop-color="#FFCD85"></stop>
																<stop offset="0.25" stop-color="#FFC383"></stop>
																<stop offset="0.6" stop-color="#FCA368"></stop>
																<stop offset="1" stop-color="#F78851"></stop>
																</linearGradient>
																<linearGradient id="paint3_linear_891_9908" x1="7.76206" y1="7.1835" x2="7.76206" y2="13.8339" gradientUnits="userSpaceOnUse">
																<stop stop-color="#FFCD85"></stop>
																<stop offset="0.25" stop-color="#FFC383"></stop>
																<stop offset="0.6" stop-color="#FCA368"></stop>
																<stop offset="1" stop-color="#F78851"></stop>
																</linearGradient>
																</defs>
															</svg>