<svg width="50" height="50" viewBox="0 0 20 15" fill="none" xmlns="http://www.w3.org/2000/svg">
																<path style="mix-blend-mode:multiply" opacity="0.4" d="M15.6678 12.8616C15.6678 14.0427 12.273 15.0002 8.08546 15.0002C3.89769 15.0002 0.50293 14.0427 0.50293 12.8616C0.50293 11.6805 3.89769 10.7236 8.08537 10.7236C12.273 10.7236 15.6678 11.6805 15.6678 12.8616Z" fill="url(#paint0_linear_891_9928)"></path>
																<path d="M14.8243 7.70989C14.8243 11.3252 13.7519 13.0971 8.27592 13.0971C2.79989 13.0971 1.72754 11.3274 1.72754 7.70989C1.72754 4.09239 4.65903 0 8.27592 0C11.8928 0 14.8243 4.09454 14.8243 7.70989Z" fill="url(#paint1_linear_891_9928)"></path>
																<path style="mix-blend-mode:screen" opacity="0.2" d="M8.27592 0.948623C11.7687 0.948623 14.623 4.76742 14.8136 8.28687C14.8206 8.09998 14.8243 7.90879 14.8243 7.71087C14.8243 4.09551 11.8922 0.000976562 8.27592 0.000976562C4.65965 0.000976562 1.72754 4.09459 1.72754 7.70994C1.72754 7.90787 1.73122 8.09905 1.73826 8.28595C1.92914 4.76864 4.78281 0.948623 8.27592 0.948623Z" fill="url(#paint2_linear_891_9928)"></path>
																<path style="mix-blend-mode:multiply" opacity="0.5" d="M8.27592 12.4902C3.00424 12.4902 1.81425 10.8492 1.73275 7.50098C1.7306 7.57083 1.72754 7.641 1.72754 7.71024C1.72754 11.3256 2.79989 13.0974 8.27592 13.0974C13.7519 13.0974 14.8243 11.3271 14.8243 7.71024C14.8243 7.641 14.8212 7.57083 14.8191 7.50098C14.7379 10.8492 13.5479 12.4902 8.27592 12.4902Z" fill="url(#paint3_linear_891_9928)"></path>
																<g style="mix-blend-mode:multiply" opacity="0.6">
																<path d="M2.3916 7.03189C2.3916 7.26689 3.24396 7.45715 4.29548 7.45715C5.34699 7.45715 6.19875 7.26689 6.19875 7.03189C6.19875 6.79689 5.34638 6.60693 4.29548 6.60693C3.24458 6.60693 2.3916 6.7972 2.3916 7.03189Z" fill="#ED6167"></path>
																</g>
																<g style="mix-blend-mode:multiply" opacity="0.6">
																<path d="M12.2587 7.45685C13.3099 7.45685 14.162 7.26659 14.162 7.03189C14.162 6.79719 13.3099 6.60693 12.2587 6.60693C11.2076 6.60693 10.3555 6.79719 10.3555 7.03189C10.3555 7.26659 11.2076 7.45685 12.2587 7.45685Z" fill="#ED6167"></path>
																</g>
																<path d="M8.19753 7.05223C8.02728 7.04647 7.8594 7.09341 7.71682 7.18663C7.57424 7.27985 7.46393 7.41482 7.40093 7.57309C7.38055 7.63151 7.3838 7.69558 7.41 7.75163C7.4362 7.80768 7.48327 7.85127 7.54117 7.8731C7.59906 7.89493 7.66318 7.89327 7.71987 7.86847C7.77655 7.84367 7.82132 7.79771 7.84458 7.74037C7.88349 7.65838 7.9501 7.59276 8.03267 7.55509C8.11524 7.51742 8.20845 7.51013 8.29587 7.53448C8.40781 7.54952 8.5103 7.60525 8.58377 7.69103C8.65723 7.77682 8.69655 7.88666 8.69419 7.99958C8.7028 8.13407 8.65806 8.26653 8.56968 8.36827C8.48131 8.47 8.35642 8.53282 8.22205 8.5431C8.18379 8.54408 8.14563 8.54736 8.10777 8.55291C8.04814 8.56098 7.99381 8.59145 7.95583 8.63812C7.91785 8.68479 7.89907 8.74417 7.90328 8.80419C7.90749 8.86421 7.93439 8.92038 7.97851 8.96129C8.02264 9.0022 8.08068 9.02477 8.14085 9.02444H8.1436C8.18047 9.0239 8.2173 9.02145 8.25391 9.01709C8.32607 9.01834 8.3954 9.04537 8.44935 9.09331C8.5033 9.14125 8.5383 9.20692 8.54803 9.27844C8.59491 9.47115 8.52935 9.67674 8.40802 9.71963C8.37017 9.73516 8.32948 9.74257 8.28858 9.7414C8.24769 9.74023 8.2075 9.73049 8.1706 9.71282C8.1337 9.69515 8.10092 9.66993 8.07437 9.63881C8.04782 9.60769 8.02809 9.57135 8.01645 9.53213C7.99282 9.47441 7.94749 9.42825 7.89021 9.40356C7.83293 9.37887 7.76826 9.37762 7.71007 9.40007C7.65192 9.42254 7.60508 9.46717 7.5798 9.52415C7.55453 9.58113 7.55289 9.64581 7.57526 9.704C7.6091 9.79991 7.66169 9.88812 7.72998 9.96349C7.79828 10.0388 7.88089 10.0998 7.97301 10.1429C8.06513 10.186 8.16492 10.2104 8.26653 10.2145C8.36815 10.2186 8.46957 10.2024 8.56488 10.167C8.74725 10.0819 8.8927 9.93373 8.9743 9.74979C9.05591 9.56585 9.06818 9.35858 9.00884 9.1663C8.97665 9.02543 8.90977 8.89483 8.81428 8.78638C8.93033 8.69173 9.02274 8.57135 9.08417 8.43478C9.14559 8.29821 9.17436 8.1492 9.16817 7.99958C9.17083 7.77545 9.09257 7.55789 8.94777 7.3868C8.80296 7.21571 8.60132 7.10258 8.37984 7.06816C8.31968 7.05738 8.25865 7.05205 8.19753 7.05223Z" fill="#794A2C"></path>
																<path d="M4.77641 6.3227C4.80721 6.32274 4.83772 6.31671 4.86618 6.30494C5.19348 6.17874 5.55586 6.17797 5.88369 6.30279C5.92723 6.32192 5.97552 6.32752 6.02229 6.31885C6.06906 6.31019 6.11214 6.28765 6.14594 6.25419C6.17974 6.22072 6.20269 6.17787 6.21182 6.13119C6.22095 6.0845 6.21583 6.03615 6.19712 5.99242C6.10266 5.76512 5.95421 5.56427 5.76464 5.40726C5.57506 5.25025 5.35006 5.14182 5.10914 5.09135C5.04706 5.08143 4.98359 5.09658 4.93268 5.13347C4.88177 5.17036 4.8476 5.22596 4.83768 5.28805C4.82777 5.35013 4.84293 5.4136 4.87982 5.46451C4.9167 5.51542 4.97231 5.54959 5.03439 5.5595C5.17321 5.59002 5.30369 5.65046 5.41676 5.73659C5.16692 5.72753 4.91802 5.77182 4.68664 5.8665C4.63573 5.88722 4.59361 5.92499 4.56749 5.97335C4.54138 6.02172 4.53291 6.07767 4.54352 6.1316C4.55413 6.18553 4.58317 6.23409 4.62566 6.26896C4.66815 6.30383 4.72145 6.32282 4.77641 6.3227Z" fill="#794A2C"></path>
																<path fill-rule="evenodd" clip-rule="evenodd" d="M5.81506 4.30076C5.87601 4.29552 5.93237 4.26629 5.97175 4.21949C6.01114 4.17269 6.03033 4.11216 6.02509 4.05121C6.01985 3.99027 5.99061 3.9339 5.94381 3.89451C5.89702 3.85513 5.83647 3.83594 5.77553 3.84118L4.73965 3.93095C4.68324 3.93588 4.63062 3.96141 4.59183 4.00267C4.55304 4.04392 4.53081 4.09802 4.52937 4.15463C4.52793 4.21123 4.54738 4.26638 4.58402 4.30956C4.62066 4.35273 4.67192 4.38091 4.72801 4.3887C4.74521 4.3906 4.76258 4.3906 4.77979 4.3887L5.81506 4.30076Z" fill="#794A2C"></path>
																<path fill-rule="evenodd" clip-rule="evenodd" d="M10.7382 4.30076C10.6773 4.29552 10.6209 4.26629 10.5815 4.21949C10.5421 4.17269 10.523 4.11216 10.5282 4.05121C10.5334 3.99027 10.5627 3.9339 10.6095 3.89451C10.6563 3.85513 10.7168 3.83594 10.7777 3.84118L11.8136 3.93095C11.8701 3.93583 11.9227 3.96132 11.9615 4.00255C12.0004 4.04379 12.0226 4.09787 12.0241 4.15449C12.0256 4.2111 12.0062 4.26627 11.9695 4.30947C11.9329 4.35267 11.8817 4.38088 11.8256 4.3887C11.8083 4.39061 11.7908 4.39061 11.7735 4.3887L10.7382 4.30076Z" fill="#794A2C"></path>
																<path d="M12.1929 6.23289C12.1498 6.3262 12.0715 6.39871 11.9752 6.43462C11.8788 6.47054 11.7722 6.46696 11.6785 6.42468C11.5572 6.37046 11.4261 6.3413 11.2933 6.33893C11.1604 6.33656 11.0284 6.36104 10.9052 6.41089C10.8605 6.43692 10.811 6.45377 10.7597 6.46046C10.7084 6.46715 10.6563 6.46354 10.6064 6.44985C10.5565 6.43615 10.5099 6.41266 10.4692 6.38072C10.4285 6.34878 10.3946 6.30905 10.3694 6.26384C10.3443 6.21864 10.3284 6.16888 10.3227 6.11746C10.317 6.06604 10.3216 6.01401 10.3363 5.9644C10.3509 5.91478 10.3753 5.86858 10.408 5.82851C10.4407 5.78844 10.4811 5.7553 10.5268 5.73103C10.7428 5.61318 10.9855 5.55282 11.2315 5.55577C11.4974 5.5579 11.7603 5.61322 12.0045 5.71846C12.0977 5.76173 12.1698 5.84022 12.2052 5.93667C12.2405 6.03313 12.2361 6.13968 12.1929 6.23289Z" fill="#794A2C"></path>
																<path d="M13.833 7.43354C13.4077 6.97702 13.1461 4.19933 14.644 2.9692C16.1419 1.73906 17.43 3.52589 16.744 4.81455C18.7866 4.05992 20.0486 6.4384 18.2361 7.45498C16.4235 8.47157 14.2595 7.88974 13.833 7.43354Z" fill="#ED6167"></path>
																<g style="mix-blend-mode:multiply" opacity="0.4">
																<path d="M18.5438 6.99031C16.7315 8.00782 14.566 7.42507 14.1407 6.96886C13.797 6.59936 13.5613 4.71264 14.2758 3.35352C13.2013 4.70161 13.4486 7.02034 13.8334 7.43427C14.2584 7.89048 16.4242 8.47353 18.2365 7.45572C18.5811 7.2785 18.8544 6.9883 19.0107 6.63368C18.8737 6.77518 18.7164 6.89539 18.5438 6.99031Z" fill="#ED6167"></path>
																</g>
																<g style="mix-blend-mode:screen">
																<path d="M15.6195 4.09688C15.2145 4.1793 14.8389 4.01661 14.781 3.73413C14.7231 3.45164 15.0052 3.15474 15.4112 3.07263C15.8172 2.99052 16.1916 3.15229 16.2495 3.43509C16.3074 3.71788 16.0261 4.01477 15.6195 4.09688Z" fill="#ED6167"></path>
																</g>
																<g style="mix-blend-mode:screen">
																<path d="M17.7035 6.06409C17.2982 6.14651 16.9229 5.98382 16.8649 5.70102C16.807 5.41823 17.0895 5.12195 17.4952 5.03954C17.9008 4.95712 18.2755 5.11919 18.3334 5.40229C18.3914 5.68539 18.1089 5.98136 17.7035 6.06409Z" fill="#ED6167"></path>
																</g>
																<defs>
																<linearGradient id="paint0_linear_891_9928" x1="8.08536" y1="10.7236" x2="8.08536" y2="15.0002" gradientUnits="userSpaceOnUse">
																<stop stop-color="#242151" stop-opacity="0.537"></stop>
																<stop offset="0.401" stop-color="#262353" stop-opacity="0.796"></stop>
																<stop offset="1" stop-color="#2E2B5D" stop-opacity="0.447"></stop>
																</linearGradient>
																<linearGradient id="paint1_linear_891_9928" x1="8.27592" y1="-1.08706" x2="8.27592" y2="14.1579" gradientUnits="userSpaceOnUse">
																<stop stop-color="#FFCD85"></stop>
																<stop offset="0.25" stop-color="#FFC383"></stop>
																<stop offset="0.6" stop-color="#FCA368"></stop>
																<stop offset="1" stop-color="#F78851"></stop>
																</linearGradient>
																<linearGradient id="paint2_linear_891_9928" x1="8.27592" y1="-0.686753" x2="8.27592" y2="8.95803" gradientUnits="userSpaceOnUse">
																<stop stop-color="#FFCD85"></stop>
																<stop offset="0.25" stop-color="#FFC383"></stop>
																<stop offset="0.6" stop-color="#FCA368"></stop>
																<stop offset="1" stop-color="#F78851"></stop>
																</linearGradient>
																<linearGradient id="paint3_linear_891_9928" x1="8.27592" y1="7.03647" x2="8.27592" y2="13.5507" gradientUnits="userSpaceOnUse">
																<stop stop-color="#FFCD85"></stop>
																<stop offset="0.25" stop-color="#FFC383"></stop>
																<stop offset="0.6" stop-color="#FCA368"></stop>
																<stop offset="1" stop-color="#F78851"></stop>
																</linearGradient>
																</defs>
															</svg>