<svg width="10" height="15" viewBox="0 0 10 15" fill="none" xmlns="http://www.w3.org/2000/svg">
<path d="M9.07689 7.49741C9.07692 7.31641 9.03736 7.13717 8.96048 6.96994C8.88361 6.80271 8.77091 6.65073 8.62883 6.52273L2.91828 1.37909C2.63149 1.12077 2.24252 0.975633 1.83694 0.975633C1.43135 0.975633 1.04239 1.12077 0.755599 1.37909C0.468808 1.63741 0.307673 1.98776 0.307673 2.35308C0.307673 2.7184 0.468808 3.06875 0.755599 3.32707L4.26978 7.50002L0.7556 11.673C0.468809 11.9313 0.307674 12.2816 0.307674 12.647C0.307674 13.0123 0.468809 13.3627 0.7556 13.621C1.04239 13.8793 1.43135 14.0244 1.83694 14.0244C2.24252 14.0244 2.63149 13.8793 2.91828 13.621L8.62883 8.47731C8.77167 8.34873 8.88483 8.19593 8.96174 8.02773C9.03864 7.85953 9.07777 7.67931 9.07689 7.49741Z" fill="#E0E4F5"/>
</svg>
