<svg width="9" height="7" viewBox="0 0 9 7" fill="none" xmlns="http://www.w3.org/2000/svg">
<path d="M4.78802 0.8462C4.6737 0.846183 4.5605 0.871165 4.45488 0.919719C4.34926 0.968274 4.25328 1.03945 4.17244 1.12919L0.923819 4.73585C0.76067 4.91698 0.669004 5.16264 0.669004 5.4188C0.669004 5.67496 0.760669 5.92062 0.923819 6.10175C1.08697 6.28288 1.30824 6.38465 1.53897 6.38465C1.7697 6.38465 1.99097 6.28288 2.15412 6.10175L4.78967 3.88227L7.42522 6.10175C7.58837 6.28288 7.80964 6.38465 8.04037 6.38465C8.2711 6.38465 8.4924 6.28288 8.65555 6.10175C8.8187 5.92062 8.91034 5.67496 8.91034 5.4188C8.91034 5.16264 8.8187 4.91698 8.65555 4.73585L5.40691 1.12919C5.3257 1.03897 5.22919 0.967501 5.12296 0.918929C5.01673 0.870358 4.9029 0.845644 4.78802 0.8462Z" fill="#E0E4F5"/>
</svg>
